<svg width="25" height="9" viewBox="0 0 25 9" fill="none" xmlns="http://www.w3.org/2000/svg">
<path d="M23.9311 8.65188C23.6031 8.65188 23.3591 8.57188 23.1991 8.41188C23.0471 8.24388 22.9711 8.03188 22.9711 7.77588V7.55988C22.9711 7.30388 23.0471 7.09188 23.1991 6.92388C23.3591 6.75588 23.6031 6.67188 23.9311 6.67188C24.2671 6.67188 24.5111 6.75588 24.6631 6.92388C24.8151 7.09188 24.8911 7.30388 24.8911 7.55988V7.77588C24.8911 8.03188 24.8151 8.24388 24.6631 8.41188C24.5111 8.57188 24.2671 8.65188 23.9311 8.65188Z" fill="#60899B"/>
<path d="M18.3951 8.664C17.6751 8.664 17.0631 8.536 16.5591 8.28C16.0631 8.024 15.6351 7.688 15.2751 7.272L16.3431 6.24C16.6311 6.576 16.9511 6.832 17.3031 7.008C17.6631 7.184 18.0591 7.272 18.4911 7.272C18.9791 7.272 19.3471 7.168 19.5951 6.96C19.8431 6.744 19.9671 6.456 19.9671 6.096C19.9671 5.816 19.8871 5.588 19.7271 5.412C19.5671 5.236 19.2671 5.108 18.8271 5.028L18.0351 4.908C16.3631 4.644 15.5271 3.832 15.5271 2.472C15.5271 2.096 15.5951 1.756 15.7311 1.452C15.8751 1.148 16.0791 0.888 16.3431 0.672C16.6071 0.456 16.9231 0.292 17.2911 0.18C17.6671 0.0599999 18.0911 0 18.5631 0C19.1951 0 19.7471 0.104 20.2191 0.312C20.6911 0.52 21.0951 0.828 21.4311 1.236L20.3511 2.256C20.1431 2 19.8911 1.792 19.5951 1.632C19.2991 1.472 18.9271 1.392 18.4791 1.392C18.0231 1.392 17.6791 1.48 17.4471 1.656C17.2231 1.824 17.1111 2.064 17.1111 2.376C17.1111 2.696 17.2031 2.932 17.3871 3.084C17.5711 3.236 17.8671 3.348 18.2751 3.42L19.0551 3.564C19.9031 3.716 20.5271 3.988 20.9271 4.38C21.3351 4.764 21.5391 5.304 21.5391 6C21.5391 6.4 21.4671 6.764 21.3231 7.092C21.1871 7.412 20.9831 7.692 20.7111 7.932C20.4471 8.164 20.1191 8.344 19.7271 8.472C19.3431 8.6 18.8991 8.664 18.3951 8.664Z" fill="#E2DDDA"/>
<path d="M10.5713 8.664C10.0193 8.664 9.51934 8.572 9.07134 8.388C8.62334 8.204 8.23934 7.928 7.91934 7.56C7.60734 7.192 7.36334 6.74 7.18734 6.204C7.01134 5.668 6.92334 5.044 6.92334 4.332C6.92334 3.628 7.01134 3.008 7.18734 2.472C7.36334 1.928 7.60734 1.472 7.91934 1.104C8.23934 0.736 8.62334 0.46 9.07134 0.276C9.51934 0.092 10.0193 0 10.5713 0C11.1233 0 11.6233 0.092 12.0713 0.276C12.5193 0.46 12.9033 0.736 13.2233 1.104C13.5433 1.472 13.7873 1.928 13.9553 2.472C14.1313 3.008 14.2193 3.628 14.2193 4.332C14.2193 5.044 14.1313 5.668 13.9553 6.204C13.7873 6.74 13.5433 7.192 13.2233 7.56C12.9033 7.928 12.5193 8.204 12.0713 8.388C11.6233 8.572 11.1233 8.664 10.5713 8.664ZM10.5713 7.26C11.1713 7.26 11.6473 7.06 11.9993 6.66C12.3593 6.26 12.5393 5.7 12.5393 4.98V3.684C12.5393 2.964 12.3593 2.404 11.9993 2.004C11.6473 1.604 11.1713 1.404 10.5713 1.404C9.97134 1.404 9.49134 1.604 9.13134 2.004C8.77934 2.404 8.60334 2.964 8.60334 3.684V4.98C8.60334 5.7 8.77934 6.26 9.13134 6.66C9.49134 7.06 9.97134 7.26 10.5713 7.26Z" fill="#E2DDDA"/>
<path d="M0 8.51986L2.136 5.33986L0.048 2.25586H1.8L3.096 4.33186H3.144L4.428 2.25586H6.06L3.936 5.36386L6.072 8.51986H4.32L3 6.35986H2.952L1.632 8.51986H0Z" fill="#E2DDDA"/>
</svg>
